<?xml version="1.0" encoding="UTF-8" standalone="no"?>
<!-- Created with Inkscape (http://www.inkscape.org/) -->

<svg
   width="256"
   height="256"
   id="svg2"
   version="1.1"
   inkscape:version="1.1.1 (3bf5ae0d25, 2021-09-20)"
   sodipodi:docname="icon.svg"
   inkscape:export-filename="/home/bastienho/web/# eelv-share-post/assets/icon-128x128.png"
   inkscape:export-xdpi="45"
   inkscape:export-ydpi="45"
   xmlns:inkscape="http://www.inkscape.org/namespaces/inkscape"
   xmlns:sodipodi="http://sodipodi.sourceforge.net/DTD/sodipodi-0.dtd"
   xmlns:xlink="http://www.w3.org/1999/xlink"
   xmlns="http://www.w3.org/2000/svg"
   xmlns:svg="http://www.w3.org/2000/svg"
   xmlns:rdf="http://www.w3.org/1999/02/22-rdf-syntax-ns#"
   xmlns:cc="http://creativecommons.org/ns#"
   xmlns:dc="http://purl.org/dc/elements/1.1/">
  <defs
     id="defs4">
    <linearGradient
       id="linearGradient3759-3">
      <stop
         id="stop3761-9"
         offset="0"
         style="stop-color:#c2ced4;stop-opacity:1;" />
      <stop
         id="stop3763-4"
         offset="1"
         style="stop-color:#f4f4fa;stop-opacity:1;" />
    </linearGradient>
    <linearGradient
       id="linearGradient3960">
      <stop
         style="stop-color:#ffffff;stop-opacity:1;"
         offset="0"
         id="stop3962" />
      <stop
         style="stop-color:#cececc;stop-opacity:1;"
         offset="1"
         id="stop3964" />
    </linearGradient>
    <radialGradient
       inkscape:collect="always"
       xlink:href="#linearGradient3960-5"
       id="radialGradient3968-3"
       cx="8.083169"
       cy="4.0239768"
       fx="8.083169"
       fy="4.0239768"
       r="1.6851097"
       gradientUnits="userSpaceOnUse"
       gradientTransform="matrix(-0.07008433,2.2837608,-1.994818,-0.06121722,16.676772,-14.18971)" />
    <linearGradient
       id="linearGradient3960-5">
      <stop
         style="stop-color:#ffffff;stop-opacity:1;"
         offset="0"
         id="stop3962-6" />
      <stop
         style="stop-color:#ffffff;stop-opacity:0;"
         offset="1"
         id="stop3964-5" />
    </linearGradient>
    <linearGradient
       id="linearGradient3759">
      <stop
         id="stop3761"
         offset="0"
         style="stop-color:#c2ced4;stop-opacity:1;" />
      <stop
         id="stop3763"
         offset="1"
         style="stop-color:#f4f4fa;stop-opacity:1;" />
    </linearGradient>
    <linearGradient
       inkscape:collect="always"
       xlink:href="#linearGradient3759-3"
       id="linearGradient3213"
       gradientUnits="userSpaceOnUse"
       gradientTransform="matrix(1.0018383,0,0,0.99444444,-2911.6228,279.93944)"
       x1="1199.15"
       y1="-2.857156"
       x2="1125.6625"
       y2="259.754" />
    <mask
       maskUnits="userSpaceOnUse"
       id="mask4137">
      <g
         id="g4139"
         transform="matrix(0.35848989,0,0,0.35848989,-774.02411,929.34267)"
         style="opacity:0.90322583">
        <path
           transform="translate(0,552.36218)"
           d="m 1760.0001,491.42856 a 365.71429,365.71429 0 0 1 -365.7143,365.71429 365.71429,365.71429 0 0 1 -365.7143,-365.71429 365.71429,365.71429 0 0 1 365.7143,-365.7143 365.71429,365.71429 0 0 1 365.7143,365.7143 z"
           sodipodi:ry="365.71429"
           sodipodi:rx="365.71429"
           sodipodi:cy="491.42856"
           sodipodi:cx="1394.2858"
           id="path4141"
           style="fill:#b3b3b3;fill-opacity:1;stroke:none"
           sodipodi:type="arc" />
        <path
           sodipodi:type="arc"
           style="fill:#f2f2f2;fill-opacity:1;stroke:none"
           id="path4143"
           sodipodi:cx="1394.2858"
           sodipodi:cy="491.42856"
           sodipodi:rx="365.71429"
           sodipodi:ry="365.71429"
           d="m 1760.0001,491.42856 a 365.71429,365.71429 0 0 1 -365.7143,365.71429 365.71429,365.71429 0 0 1 -365.7143,-365.71429 365.71429,365.71429 0 0 1 365.7143,-365.7143 365.71429,365.71429 0 0 1 365.7143,365.7143 z"
           transform="matrix(0.87109375,0,0,0.87109375,182.01787,613.13896)" />
        <text
           id="text4145"
           y="780.93359"
           x="1411.4286"
           style="font-style:normal;font-weight:normal;line-height:0%;font-family:sans-serif;text-align:center;letter-spacing:0px;word-spacing:0px;text-anchor:middle;fill:#000000;fill-opacity:1;stroke:none"
           xml:space="preserve"><tspan
             y="780.93359"
             x="1411.4286"
             id="tspan4147"
             sodipodi:role="line"
             style="font-size:40px;line-height:1.25;font-family:sans-serif">12</tspan></text>
        <text
           id="text4149"
           y="1030.063"
           x="1134.1002"
           style="font-style:normal;font-weight:normal;line-height:0%;font-family:sans-serif;text-align:center;letter-spacing:0px;word-spacing:0px;text-anchor:middle;fill:#000000;fill-opacity:1;stroke:none"
           xml:space="preserve"><tspan
             y="1030.063"
             x="1134.1002"
             id="tspan4151"
             sodipodi:role="line"
             style="font-size:40px;line-height:1.25;font-family:sans-serif">9</tspan></text>
        <text
           transform="translate(0,552.36218)"
           id="text4153"
           y="345.71429"
           x="1182.8571"
           style="font-style:normal;font-weight:normal;line-height:0%;font-family:sans-serif;text-align:center;letter-spacing:0px;word-spacing:0px;text-anchor:middle;fill:#000000;fill-opacity:1;stroke:none"
           xml:space="preserve"><tspan
             y="345.71429"
             x="1182.8571"
             id="tspan4155"
             sodipodi:role="line"
             style="font-size:40px;line-height:1.25;font-family:sans-serif">10</tspan></text>
        <text
           transform="translate(0,552.36218)"
           id="text4157"
           y="260"
           x="1282.8571"
           style="font-style:normal;font-weight:normal;line-height:0%;font-family:sans-serif;text-align:center;letter-spacing:0px;word-spacing:0px;text-anchor:middle;fill:#000000;fill-opacity:1;stroke:none"
           xml:space="preserve"><tspan
             y="260"
             x="1282.8571"
             id="tspan4159"
             sodipodi:role="line"
             style="font-size:40px;line-height:1.25;font-family:sans-serif">11</tspan></text>
        <text
           transform="translate(0,552.36218)"
           id="text4161"
           y="254.28571"
           x="1525.7144"
           style="font-style:normal;font-weight:normal;line-height:0%;font-family:sans-serif;text-align:center;letter-spacing:0px;word-spacing:0px;text-anchor:middle;fill:#000000;fill-opacity:1;stroke:none"
           xml:space="preserve"><tspan
             y="254.28571"
             x="1525.7144"
             id="tspan4163"
             sodipodi:role="line"
             style="font-size:40px;line-height:1.25;font-family:sans-serif">1</tspan></text>
        <path
           inkscape:transform-center-y="-99.531645"
           inkscape:transform-center-x="73.55135"
           inkscape:connector-curvature="0"
           id="path4165"
           d="m 1408.5924,1059.8426 -138.6774,-171.125 5.6692,-27.93829 25.1404,7.0766 116.2931,186.91049 z"
           style="fill:#000000;stroke:none" />
        <path
           inkscape:transform-center-y="-78.346369"
           inkscape:transform-center-x="-45.739088"
           style="fill:#000000;stroke:none"
           d="m 1415.0061,1053.063 63.6584,-147.25313 22.1228,-6.5879 5.4078,18.05289 -84.1052,139.15034 z"
           id="path4167"
           inkscape:connector-curvature="0" />
        <path
           transform="matrix(0.34849706,-0.2307546,0.15527413,0.2345027,727.78943,1081.7158)"
           d="m 1760.0001,491.42856 a 365.71429,365.71429 0 0 1 -365.7143,365.71429 365.71429,365.71429 0 0 1 -365.7143,-365.71429 365.71429,365.71429 0 0 1 365.7143,-365.7143 365.71429,365.71429 0 0 1 365.7143,365.7143 z"
           sodipodi:ry="365.71429"
           sodipodi:rx="365.71429"
           sodipodi:cy="491.42856"
           sodipodi:cx="1394.2858"
           id="path4169"
           style="opacity:0.60931899;fill:#f9f9f9;fill-opacity:1;stroke:none"
           sodipodi:type="arc" />
      </g>
    </mask>
  </defs>
  <sodipodi:namedview
     id="base"
     pagecolor="#ffffff"
     bordercolor="#666666"
     borderopacity="1.0"
     inkscape:pageopacity="0.0"
     inkscape:pageshadow="2"
     inkscape:zoom="0.80473116"
     inkscape:cx="12.42651"
     inkscape:cy="122.40113"
     inkscape:document-units="px"
     inkscape:current-layer="layer1"
     showgrid="false"
     inkscape:window-width="1554"
     inkscape:window-height="841"
     inkscape:window-x="2606"
     inkscape:window-y="562"
     inkscape:window-maximized="1"
     inkscape:pagecheckerboard="1" />
  <metadata
     id="metadata7">
    <rdf:RDF>
      <cc:Work
         rdf:about="">
        <dc:format>image/svg+xml</dc:format>
        <dc:type
           rdf:resource="http://purl.org/dc/dcmitype/StillImage" />
      </cc:Work>
    </rdf:RDF>
  </metadata>
  <g
     inkscape:label="Calque 1"
     inkscape:groupmode="layer"
     id="layer1"
     transform="translate(0,-796.36218)">
    <rect
       style="fill:#ffd500;fill-opacity:1;stroke:none"
       id="rect3304"
       width="256"
       height="256"
       x="0"
       y="796.36218"
       ry="0" />
    <g
       aria-label=""
       id="text1466"
       style="font-size:261.022px;line-height:1.25;font-family:Dashicons;-inkscape-font-specification:Dashicons;letter-spacing:0px;word-spacing:0px;fill:#333333;stroke-width:13.9833">
      <path
         d="m 193.2555,878.98925 v -26.51004 h -39.25526 v 26.51004 H 101.99976 V 852.47921 H 62.744499 v 26.51004 H 49.489476 q -5.607895,0 -9.176555,3.56866 -3.56866,3.56866 -3.56866,9.17656 V 996.24523 H 219.25574 V 891.73447 q 0,-5.6079 -3.56866,-9.17656 -3.56866,-3.56866 -9.17656,-3.56866 z"
         id="path5301"
         style="fill:#333333" />
    </g>
    <g
       aria-label=""
       id="text2386"
       style="font-size:79.2337px;line-height:1.25;font-family:Dashicons;-inkscape-font-specification:Dashicons;letter-spacing:0px;word-spacing:0px;stroke-width:4.24466;fill:#ffffff">
      <path
         d="m 159.72443,946.27822 h 3.86884 q 1.70228,0 2.78556,1.23803 1.23802,1.08327 1.23802,2.78556 v 11.76125 q 0,1.70229 -1.23802,2.94031 -1.08328,1.08328 -2.78556,1.08328 h -15.78484 q -1.70229,0 -2.94032,-1.08328 -1.08327,-1.23802 -1.08327,-2.94031 v -11.76125 q 0,-1.70229 1.08327,-2.78556 1.23803,-1.23803 2.94032,-1.23803 h 4.02358 v -7.89242 h -19.80842 v 7.89242 h 3.86883 q 1.70229,0 2.78556,1.23803 1.23803,1.08327 1.23803,2.78556 v 11.76125 q 0,1.70229 -1.23803,2.94031 -1.08327,1.08328 -2.78556,1.08328 h -15.78484 q -1.70229,0 -2.94031,-1.08328 -1.08328,-1.23802 -1.08328,-2.94031 v -11.76125 q 0,-1.70229 1.08328,-2.78556 1.23802,-1.23803 2.94031,-1.23803 h 3.86883 v -7.89242 h -19.80842 v 7.89242 h 4.02358 q 1.70229,0 2.78556,1.23803 1.23803,1.08327 1.23803,2.78556 v 11.76125 q 0,1.70229 -1.23803,2.94031 -1.08327,1.08328 -2.78556,1.08328 H 92.406735 q -1.702287,0 -2.940314,-1.08328 -1.083273,-1.23802 -1.083273,-2.94031 v -11.76125 q 0,-1.70229 1.083273,-2.78556 1.238027,-1.23803 2.940314,-1.23803 h 3.868833 v -7.89242 q 0,-3.40457 2.3213,-5.72587 2.321302,-2.3213 5.571122,-2.3213 h 19.80842 v -7.89242 h -3.86883 q -1.70229,0 -2.94031,-1.08328 -1.08328,-1.23802 -1.08328,-2.94031 v -11.76125 q 0,-1.70229 1.08328,-2.78556 1.23802,-1.23803 2.94031,-1.23803 h 15.78484 q 1.70229,0 2.78556,1.23803 1.23803,1.08327 1.23803,2.78556 v 11.76125 q 0,1.70229 -1.23803,2.94031 -1.08327,1.08328 -2.78556,1.08328 h -3.86883 v 7.89242 h 19.80842 q 3.24982,0 5.57112,2.3213 2.3213,2.3213 2.3213,5.72587 z"
         id="path5322"
         style="fill:#ffffff" />
    </g>
  </g>
</svg>
